G04 MADE WITH FRITZING*
G04 WWW.FRITZING.ORG*
G04 DOUBLE SIDED*
G04 HOLES PLATED*
G04 CONTOUR ON CENTER OF CONTOUR VECTOR*
%ASAXBY*%
%FSLAX23Y23*%
%MOIN*%
%OFA0B0*%
%SFA1.0B1.0*%
%ADD10C,0.089370*%
%ADD11C,0.109000*%
%ADD12C,0.104488*%
%ADD13C,0.085000*%
%ADD14C,0.135984*%
%ADD15C,0.087701*%
%ADD16C,0.088000*%
%ADD17R,0.089370X0.089370*%
%ADD18R,0.109000X0.109000*%
%LNMASK0*%
G90*
G70*
G54D10*
X2123Y961D03*
X2123Y861D03*
X2123Y761D03*
X2123Y661D03*
X2123Y561D03*
G54D11*
X760Y873D03*
X560Y873D03*
X660Y1073D03*
G54D12*
X168Y917D03*
X158Y717D03*
X337Y125D03*
X537Y125D03*
X737Y125D03*
G54D13*
X1510Y1455D03*
X1510Y1055D03*
G54D14*
X2220Y107D03*
X2220Y3285D03*
X104Y3283D03*
X104Y107D03*
G54D15*
X1001Y809D03*
X1001Y709D03*
X1001Y609D03*
X1001Y509D03*
X1001Y409D03*
X1001Y309D03*
X1001Y209D03*
X1001Y109D03*
X1700Y809D03*
X1700Y709D03*
X1700Y609D03*
X1700Y509D03*
X1700Y409D03*
X1700Y309D03*
X1700Y209D03*
X1700Y109D03*
G54D16*
X195Y2774D03*
X195Y2674D03*
X195Y2574D03*
X195Y2474D03*
X195Y2374D03*
X195Y2274D03*
X195Y2174D03*
X195Y2074D03*
X195Y2774D03*
X195Y2674D03*
X195Y2574D03*
X195Y2474D03*
X195Y2374D03*
X195Y2274D03*
X195Y2174D03*
X195Y2074D03*
X295Y2074D03*
X295Y2174D03*
X295Y2274D03*
X295Y2374D03*
X295Y2474D03*
X295Y2574D03*
X295Y2674D03*
X295Y2774D03*
X195Y1873D03*
X195Y1773D03*
X195Y1673D03*
X195Y1573D03*
X195Y1473D03*
X195Y1373D03*
X195Y1873D03*
X195Y1773D03*
X195Y1673D03*
X195Y1573D03*
X195Y1473D03*
X195Y1373D03*
X295Y1373D03*
X295Y1473D03*
X295Y1573D03*
X295Y1673D03*
X295Y1773D03*
X295Y1873D03*
X1994Y2076D03*
X1994Y1976D03*
X1994Y1876D03*
X1994Y1776D03*
X1994Y1676D03*
X1994Y1576D03*
X1994Y1476D03*
X1994Y1376D03*
X1994Y2076D03*
X1994Y1976D03*
X1994Y1876D03*
X1994Y1776D03*
X1994Y1676D03*
X1994Y1576D03*
X1994Y1476D03*
X1994Y1376D03*
X2094Y1376D03*
X2094Y1476D03*
X2094Y1576D03*
X2094Y1676D03*
X2094Y1776D03*
X2094Y1876D03*
X2094Y1976D03*
X2094Y2076D03*
X1993Y3135D03*
X1993Y3035D03*
X1993Y2935D03*
X1993Y2835D03*
X1993Y2735D03*
X1993Y2635D03*
X1993Y2535D03*
X1993Y2435D03*
X1993Y2335D03*
X1993Y2235D03*
X1993Y3135D03*
X1993Y3035D03*
X1993Y2935D03*
X1993Y2835D03*
X1993Y2735D03*
X1993Y2635D03*
X1993Y2535D03*
X1993Y2435D03*
X1993Y2335D03*
X1993Y2235D03*
X2093Y2235D03*
X2093Y2335D03*
X2093Y2435D03*
X2093Y2535D03*
X2093Y2635D03*
X2093Y2735D03*
X2093Y2835D03*
X2093Y2935D03*
X2093Y3035D03*
X2093Y3135D03*
G54D17*
X2123Y961D03*
G54D18*
X560Y873D03*
G04 End of Mask0*
M02*