; NON-PLATED HOLES START AT T1
; THROUGH (PLATED) HOLES START AT T100
M48
INCH
T1C0.125984
T100C0.039370
T101C0.038000
T102C0.041000
T103C0.035000
T104C0.036076
%
T1
X001042Y032830
X001042Y001065
X022201Y032847
X022204Y001065
T100
X003366Y001249
X007366Y001249
X021225Y009605
X005366Y001249
X001583Y007168
X021225Y005605
X001683Y009168
X021225Y008605
X021225Y006605
X021225Y007605
T101
X019934Y031349
X002947Y018733
X020934Y028349
X019938Y018755
X019934Y027349
X002945Y021736
X001945Y025736
X001947Y016733
X001947Y017733
X001945Y023736
X019938Y014755
X020934Y031349
X002947Y016733
X019934Y023349
X020938Y017755
X020934Y026349
X019938Y016755
X001945Y026736
X019934Y022349
X020938Y015755
X001945Y022736
X002945Y020736
X020938Y020755
X001945Y021736
X001947Y014733
X001945Y027736
X019938Y019755
X001945Y024736
X020934Y025349
X020938Y018755
X002947Y017733
X019938Y015755
X020938Y013755
X019934Y026349
X002945Y023736
X002945Y024736
X002945Y027736
X019938Y013755
X002945Y025736
X019934Y025349
X020934Y023349
X019938Y017755
X019938Y020755
X019934Y030349
X001947Y015733
X019934Y028349
X020934Y022349
X002945Y026736
X002947Y014733
X020934Y030349
X002947Y015733
X020938Y019755
X001947Y018733
X020938Y016755
X020938Y014755
X020934Y024349
X020934Y027349
X002947Y013733
X001945Y020736
X001947Y013733
X019934Y029349
X002945Y022736
X019934Y024349
X020934Y029349
T102
X006602Y010734
X005602Y008734
X007602Y008734
T103
X015099Y014548
X015099Y010548
T104
X017004Y002090
X010011Y006088
X017004Y003089
X010011Y003089
X017004Y008087
X010011Y007088
X010011Y008087
X010011Y002090
X017004Y005089
X017004Y006088
X017004Y004089
X017004Y007088
X010011Y001090
X010011Y004089
X010011Y005089
X017004Y001090
T00
M30
