; NON-PLATED HOLES START AT T1
; THROUGH (PLATED) HOLES START AT T100
M48
INCH
T1C0.086614
T100C0.039370
T101C0.035000
T102C0.041000
T103C0.040278
T104C0.036076
%
T1
X001042Y001065
X022204Y001065
X001042Y032830
X022201Y032847
T100
X003366Y001249
X021225Y008605
X021225Y005605
X021225Y007605
X001583Y007168
X007366Y001249
X001683Y009168
X021225Y006605
X021225Y009605
X005366Y001249
T101
X015099Y014548
X015099Y010548
T102
X007602Y008734
X006602Y010734
X005602Y008734
T103
X001948Y027737
X001948Y025737
X020948Y014737
X001948Y023737
X020948Y019737
X020948Y025337
X020948Y024337
X001948Y022737
X020948Y020737
X020948Y018737
X020948Y029337
X020948Y016738
X020948Y022338
X020948Y017737
X020948Y023337
X001948Y018737
X001948Y020737
X001948Y013737
X001948Y026737
X020948Y013737
X001948Y015737
X001948Y021738
X020948Y031337
X020948Y030337
X001948Y017737
X020948Y028337
X020948Y015737
X001948Y024737
X001948Y016738
X020948Y027337
X001948Y014737
X020948Y026337
T104
X017004Y006088
X010011Y001090
X010011Y007088
X017004Y002090
X017004Y007088
X010011Y005089
X017004Y003089
X010011Y008087
X017004Y004089
X017004Y008087
X017004Y001090
X017004Y005089
X010011Y004089
X010011Y003089
X010011Y002090
X010011Y006088
T00
M30
