; NON-PLATED HOLES START AT T1
; THROUGH (PLATED) HOLES START AT T100
M48
INCH
T1C0.125984
T100C0.039370
T101C0.037250
T102C0.041000
T103C0.035000
T104C0.037222
T105C0.036076
%
T1
X001042Y029564
X001042Y001233
X016561Y001233
X016558Y029581
T100
X003398Y002077
X003398Y004077
X016066Y015105
X002432Y014396
X002332Y012396
X003512Y028719
X016066Y017105
X003512Y026719
X016066Y016105
X003512Y024719
X003398Y006077
X016066Y013105
X003512Y022719
X016066Y014105
X003512Y020719
T101
X006737Y020451
X006737Y026451
X012737Y026451
X006737Y021451
X006737Y025451
X012737Y021451
X006737Y027451
X012737Y025451
X006737Y022451
X012737Y022451
X012737Y020451
X012737Y027451
T102
X002828Y008594
X004828Y008594
X003828Y010594
T103
X009354Y010545
X009354Y014545
T104
X006737Y016451
X012737Y018451
X012737Y012451
X012737Y015451
X006737Y012451
X006737Y023451
X012737Y014451
X006737Y018451
X012737Y013451
X012737Y024451
X012737Y023451
X012737Y017451
X012737Y011451
X012737Y019451
X006737Y011451
X006737Y014451
X006737Y024451
X012737Y016451
X006737Y013451
X006737Y015451
X006737Y017451
X006737Y019451
T105
X006782Y007140
X013775Y002142
X006782Y005141
X006782Y008140
X006782Y006141
X006782Y004141
X013775Y001143
X013775Y004141
X013775Y003142
X006782Y003142
X013775Y005141
X013775Y006141
X013775Y008140
X006782Y002142
X006782Y001143
X013775Y007140
T00
M30
