G04 MADE WITH FRITZING*
G04 WWW.FRITZING.ORG*
G04 DOUBLE SIDED*
G04 HOLES PLATED*
G04 CONTOUR ON CENTER OF CONTOUR VECTOR*
%ASAXBY*%
%FSLAX23Y23*%
%MOIN*%
%OFA0B0*%
%SFA1.0B1.0*%
%ADD10C,0.079370*%
%ADD11C,0.099000*%
%ADD12C,0.094488*%
%ADD13C,0.075000*%
%ADD14C,0.077701*%
%ADD15C,0.070555*%
%ADD16C,0.070583*%
%ADD17R,0.079370X0.079370*%
%ADD18R,0.099000X0.099000*%
%ADD19R,0.070570X0.070542*%
%ADD20C,0.032000*%
%ADD21C,0.048000*%
%ADD22C,0.024000*%
%LNCOPPER1*%
G90*
G70*
G54D10*
X1607Y1711D03*
X1607Y1611D03*
X1607Y1511D03*
X1607Y1411D03*
X1607Y1311D03*
G54D11*
X483Y859D03*
X283Y859D03*
X383Y1059D03*
G54D12*
X243Y1440D03*
X233Y1240D03*
X340Y608D03*
X340Y408D03*
X340Y208D03*
G54D13*
X935Y1455D03*
X935Y1055D03*
G54D14*
X678Y814D03*
X678Y714D03*
X678Y614D03*
X678Y514D03*
X678Y414D03*
X678Y314D03*
X678Y214D03*
X678Y114D03*
X1378Y814D03*
X1378Y714D03*
X1378Y614D03*
X1378Y514D03*
X1378Y414D03*
X1378Y314D03*
X1378Y214D03*
X1378Y114D03*
G54D15*
X1274Y1145D03*
X1274Y1245D03*
X1274Y1345D03*
X1274Y1445D03*
X1274Y1545D03*
X1274Y1645D03*
X1274Y1745D03*
X1274Y1845D03*
X1274Y1945D03*
G54D16*
X1274Y2045D03*
X1274Y2145D03*
X1274Y2245D03*
G54D15*
X1274Y2345D03*
X1274Y2445D03*
G54D16*
X1274Y2545D03*
X1274Y2645D03*
X1274Y2745D03*
G54D15*
X674Y1145D03*
X674Y1245D03*
X674Y1345D03*
X674Y1445D03*
X674Y1545D03*
X674Y1645D03*
X674Y1945D03*
G54D16*
X674Y2045D03*
G54D15*
X674Y1845D03*
X674Y1745D03*
G54D16*
X674Y2145D03*
X674Y2245D03*
G54D15*
X674Y2345D03*
X674Y2445D03*
G54D16*
X674Y2545D03*
X674Y2645D03*
X674Y2745D03*
G54D12*
X351Y2872D03*
X351Y2672D03*
X351Y2472D03*
X351Y2272D03*
X351Y2072D03*
G54D17*
X1607Y1711D03*
G54D18*
X283Y859D03*
G54D19*
X1274Y1145D03*
G54D20*
X269Y1248D02*
X639Y1337D01*
G54D21*
D02*
X772Y1120D02*
X776Y1625D01*
D02*
X776Y1625D02*
X714Y1637D01*
G54D22*
D02*
X274Y1440D02*
X644Y1445D01*
G54D21*
D02*
X690Y853D02*
X772Y1120D01*
D02*
X1591Y1272D02*
X1461Y953D01*
D02*
X1461Y953D02*
X816Y947D01*
D02*
X816Y947D02*
X699Y834D01*
G54D22*
D02*
X1244Y1446D02*
X964Y1454D01*
D02*
X1435Y1743D02*
X1303Y1745D01*
D02*
X1582Y1629D02*
X1435Y1743D01*
D02*
X1607Y1380D02*
X1607Y1341D01*
D02*
X495Y811D02*
X649Y814D01*
D02*
X491Y829D02*
X495Y811D01*
G54D20*
D02*
X466Y511D02*
X369Y586D01*
D02*
X471Y294D02*
X367Y384D01*
D02*
X653Y338D02*
X466Y511D01*
D02*
X646Y227D02*
X471Y294D01*
D02*
X645Y124D02*
X375Y198D01*
G54D22*
D02*
X133Y865D02*
X128Y1440D01*
D02*
X251Y861D02*
X133Y865D01*
D02*
X128Y1440D02*
X212Y1440D01*
D02*
X346Y2042D02*
X248Y1470D01*
D02*
X502Y2277D02*
X507Y2646D01*
D02*
X507Y2646D02*
X644Y2645D01*
D02*
X382Y2273D02*
X502Y2277D01*
D02*
X478Y2821D02*
X371Y2695D01*
D02*
X925Y2817D02*
X478Y2821D01*
D02*
X1247Y2658D02*
X925Y2817D01*
D02*
X1301Y1634D02*
X1578Y1522D01*
G04 End of Copper1*
M02*